<?xml version="1.0" encoding="iso-8859-1"?>
<!-- Generator: Adobe Illustrator 19.0.0, SVG Export Plug-In . SVG Version: 6.00 Build 0)  -->
<svg xmlns="http://www.w3.org/2000/svg" xmlns:xlink="http://www.w3.org/1999/xlink" version="1.1" id="Layer_1" x="0px" y="0px" viewBox="0 0 512 512" style="enable-background:new 0 0 512 512; margin: 0 200px 0 200px;" xml:space="preserve" width="700px" height="400px">
<circle style="fill:#273B7A;" cx="256" cy="256" r="256"/>
<path style="fill:#121149;" d="M299.18,508.356c102.383-17.394,184.058-95.565,206.603-196.098L276.259,82.734l-15.798,7.692
	l-9.144-9.144l-7.53,6.853l-0.862,3.375l-2.958,14.165l17.511,17.251l-8.661,38.116l84.39,84.39l-217.341,79.61L299.18,508.356z"/>
<rect x="227.556" y="312.889" style="fill:#FF7F4F;" width="56.889" height="56.889"/>
<rect x="256" y="312.889" style="fill:#D35933;" width="28.444" height="56.889"/>
<path style="fill:#FFAD9E;" d="M303.049,199.111h-94.096c-5.435,0-9.842-4.406-9.842-9.842v-65.65c0-5.435,4.406-9.842,9.842-9.842
	h94.096c5.435,0,9.84,4.406,9.84,9.842v65.652C312.889,194.705,308.483,199.111,303.049,199.111z"/>
<path style="fill:#FF6262;" d="M303.049,113.778H256v85.333h47.047c5.435,0,9.84-4.406,9.84-9.84v-65.653
	C312.889,118.184,308.483,113.778,303.049,113.778z"/>
<path style="fill:#FFFFFF;" d="M331.493,256H180.508c-5.435,0-9.842-4.406-9.842-9.84v-65.652c0-5.435,4.406-9.842,9.842-9.842
	h150.985c5.435,0,9.84,4.406,9.84,9.842v65.652C341.333,251.594,336.927,256,331.493,256z"/>
<g>
	<path style="fill:#FFAD9E;" d="M331.493,170.667H256V256h75.492c5.435,0,9.84-4.406,9.84-9.84v-65.652
		C341.333,175.073,336.927,170.667,331.493,170.667z"/>
	<path style="fill:#FFAD9E;" d="M359.938,312.889H152.064c-5.435,0-9.842-4.406-9.842-9.84v-65.652c0-5.435,4.406-9.84,9.842-9.84
		h207.874c5.435,0,9.84,4.406,9.84,9.84v65.652C369.778,308.483,365.371,312.889,359.938,312.889z"/>
</g>
<path style="fill:#FF6262;" d="M359.938,227.556H256v85.333h103.936c5.435,0,9.84-4.406,9.84-9.84v-65.652
	C369.778,231.962,365.371,227.556,359.938,227.556z"/>
<g>
	<path style="fill:#D35933;" d="M388.382,328.835H123.62c-5.435,0-9.842-4.406-9.842-9.84v-8.763c0-5.435,4.406-9.84,9.842-9.84
		h264.763c5.435,0,9.84,4.406,9.84,9.84v8.763C398.222,324.429,393.816,328.835,388.382,328.835z"/>
	<path style="fill:#D35933;" d="M303.049,385.724h-94.096c-5.435,0-9.842-4.406-9.842-9.84v-8.763c0-5.435,4.406-9.84,9.842-9.84
		h94.096c5.435,0,9.84,4.406,9.84,9.84v8.763C312.889,381.318,308.483,385.724,303.049,385.724z"/>
</g>
<g>
	<path style="fill:#B54324;" d="M388.382,300.391H256v28.444h132.38c5.435,0,9.84-4.406,9.84-9.84v-8.763
		C398.222,304.797,393.816,300.391,388.382,300.391z"/>
	<path style="fill:#B54324;" d="M303.049,357.279H256v28.444h47.047c5.435,0,9.84-4.406,9.84-9.84v-8.763
		C312.889,361.686,308.483,357.279,303.049,357.279z"/>
</g>
<path style="fill:#FF314F;" d="M232.727,90.614c0-8.051,5.21-11.636,11.636-11.636c2.608,0,5.015,0.859,6.956,2.307
	c2.841,2.122,4.68,5.511,4.68,9.33c0-6.427,5.21-11.636,11.636-11.636c6.427,0,11.636,4.996,11.636,11.636
	c0,16.279-23.273,25.212-23.273,25.212S232.727,107.01,232.727,90.614z"/>
<path style="fill:#A30F44;" d="M279.273,90.614c0-6.64-5.21-11.636-11.636-11.636c-6.423,0-11.629,5.204-11.636,11.626v25.222
	C256.012,115.821,279.273,106.887,279.273,90.614z"/>
<g>
</g>
<g>
</g>
<g>
</g>
<g>
</g>
<g>
</g>
<g>
</g>
<g>
</g>
<g>
</g>
<g>
</g>
<g>
</g>
<g>
</g>
<g>
</g>
<g>
</g>
<g>
</g>
<g>
</g>
</svg>
