<svg xmlns="http://www.w3.org/2000/svg" viewBox="0 0 512 512" height="400"><circle cx="256" cy="256" r="256" fill="#273b7a"/><path d="M299.18 508.356c102.383-17.394 184.058-95.565 206.603-196.098L276.259 82.734l-15.798 7.692-9.144-9.144-7.53 6.853-.862 3.375-2.958 14.165 17.511 17.251-8.661 38.116 84.39 84.39-217.341 79.61L299.18 508.356z" fill="#121149"/><path fill="#ff7f4f" d="M227.556 312.889h56.889v56.889h-56.889z"/><path fill="#d35933" d="M256 312.889h28.444v56.889H256z"/><path d="M303.049 199.111h-94.096c-5.435 0-9.842-4.406-9.842-9.842v-65.65c0-5.435 4.406-9.842 9.842-9.842h94.096c5.435 0 9.84 4.406 9.84 9.842v65.652c0 5.434-4.406 9.84-9.84 9.84z" fill="#ffad9e"/><path d="M303.049 113.778H256v85.333h47.047c5.435 0 9.84-4.406 9.84-9.84v-65.653c.002-5.434-4.404-9.84-9.838-9.84z" fill="#ff6262"/><path d="M331.493 256H180.508c-5.435 0-9.842-4.406-9.842-9.84v-65.652c0-5.435 4.406-9.842 9.842-9.842h150.985c5.435 0 9.84 4.406 9.84 9.842v65.652c0 5.434-4.406 9.84-9.84 9.84z" fill="#fff"/><g fill="#ffad9e"><path d="M331.493 170.667H256V256h75.492c5.435 0 9.84-4.406 9.84-9.84v-65.652c.001-5.435-4.405-9.841-9.839-9.841z"/><path d="M359.938 312.889H152.064c-5.435 0-9.842-4.406-9.842-9.84v-65.652c0-5.435 4.406-9.84 9.842-9.84h207.874c5.435 0 9.84 4.406 9.84 9.84v65.652c0 5.434-4.407 9.84-9.84 9.84z"/></g><path d="M359.938 227.556H256v85.333h103.936c5.435 0 9.84-4.406 9.84-9.84v-65.652c.002-5.435-4.405-9.841-9.838-9.841z" fill="#ff6262"/><path d="M388.382 328.835H123.62c-5.435 0-9.842-4.406-9.842-9.84v-8.763c0-5.435 4.406-9.84 9.842-9.84h264.763c5.435 0 9.84 4.406 9.84 9.84v8.763c-.001 5.434-4.407 9.84-9.841 9.84zm-85.333 56.889h-94.096c-5.435 0-9.842-4.406-9.842-9.84v-8.763c0-5.435 4.406-9.84 9.842-9.84h94.096c5.435 0 9.84 4.406 9.84 9.84v8.763c0 5.434-4.406 9.84-9.84 9.84z" fill="#d35933"/><path d="M388.382 300.391H256v28.444h132.38c5.435 0 9.84-4.406 9.84-9.84v-8.763c.002-5.435-4.404-9.841-9.838-9.841zm-85.333 56.888H256v28.444h47.047c5.435 0 9.84-4.406 9.84-9.84v-8.763c.002-5.434-4.404-9.841-9.838-9.841z" fill="#b54324"/><path d="M232.727 90.614c0-8.051 5.21-11.636 11.636-11.636 2.608 0 5.015.859 6.956 2.307a11.62 11.62 0 0 1 4.68 9.33c0-6.427 5.21-11.636 11.636-11.636 6.427 0 11.636 4.996 11.636 11.636 0 16.279-23.273 25.212-23.273 25.212s-23.271-8.817-23.271-25.213z" fill="#ff314f"/><path d="M279.273 90.614c0-6.64-5.21-11.636-11.636-11.636-6.423 0-11.629 5.204-11.636 11.626v25.222c.011-.005 23.272-8.939 23.272-25.212z" fill="#a30f44"/><text font-size="30" x="160" y="60" font-family="Verdana" fill="#fff">Cake Recipe</text></svg>